<svg id="Logo-Exitus" data-name="Logo-Exitus" preserveAspectRatio="xMidYMid meet" xmlns="http://www.w3.org/2000/svg" width="132.3901mm" height="148.0201mm" viewBox="0 0 375.2791 419.5846"><defs><style>.cls-1{fill:#2c3ea2;}</style></defs><title>existus - logo E</title><path class="cls-1" d="M210.7671,328.3473c41.4094-9.4425,79.1038-26.9292,111.7435-54.12,28.677-23.89,48.5813-53.5259,51.9651-91.8334,2.2345-25.2971-4.7657-47.6649-25.3607-64.0074-14.8581-11.79-32.4983-15.4752-51.1144-14.9282-4.3278,0-8.7218-.4795-12.9685.107-7.2394,1-14.5907,2.0088-21.5405,4.16-69.8415,21.6133-114.57,67.5916-133.3937,138.4176-2.484,9.3462-2.292,9.6111,7.0014,9.0978,22.1605-1.2241,44.0135-4.2769,65.1031-11.6238a9.6456,9.6456,0,0,0,6.0988-5.35,145.23,145.23,0,0,1,21.3595-32.454c8.0407-9.4079,16.6754-18.16,28.202-23.4444,6.1241-2.8078,12.5071-3.89,18.9625-2.159,9.9694,2.6733,12.9674,14.1642,6.8675,25.34-4.2052,7.7044-10.1053,14.0357-16.5487,19.8719-24.0865,21.8168-52.7491,34.4927-84.1318,41.3535a285.4712,285.4712,0,0,1-77.4134,5.7195A379.0016,379.0016,0,0,1,31.7514,261.19c-7.3567-1.9038-14.1681-5.8611-22.1206-5.5961-8.8092.2937-12.0089,5.55-7.7827,13.31,2.68,4.9207,6.6817,8.7071,11.0832,12.0439,28.7666,21.8079,61.46,34.926,96.29,43.1955,9.4891,2.253,9.5414,2.0181,10.64,11.4256.1929,1.6519.47,3.2947.641,4.9486,2.3983,23.1507,11.5358,42.8352,29.6853,57.9194,36.5546,30.3807,91.0455,26.3095,124.74-1.26,7.8461-6.42,13.806-13.9811,16.9449-22.958,3.1985,15.4751-1.62,31.0464-1.62,31.0464s14.6007-15.0338,30.6584-54.1581-74.8386-7.3635-74.8386-7.3635c11.8153-.0588,20.757,2.0478,27.49,5.511-12.7392,6.4325-25.95,11.5355-40.41,12.5234-17.1671,1.1727-27.8228-6.3463-29.1735-24.33C203.4138,329.9213,203.6645,329.9669,210.7671,328.3473Z"/><path class="cls-1" d="M62.514,254.0056a5.5634,5.5634,0,0,0,5.6367-2.2882c4.2706-5.5007,5.9365-12,6.48-18.6708.5962-7.32.3583-14.706.5808-22.06a4.2909,4.2909,0,0,1,1.0458-2.5784c5.9525-6.3926,4.9683-14.7322-2.343-19.6592a3.1177,3.1177,0,0,1-1.3533-1.8344c-2.2835-19.1119-4.498-38.2359-6.7723-57.787,4.29-.5115,8.5831-.9968,12.8653-1.5639.0711-.0094.1308-.0084.1981-.0145l21.0112-2.4448,4.94-.5979c26.0325-3.1518,52.06-6.3436,78.1009-9.4273,6.4828-.7677,11.18-4.21,15.3137-8.9593q41.0508-47.1586,82.2142-94.2188A10.0345,10.0345,0,0,0,283.12,4.752q-.7251-1.3738-1.4506-2.7476a9.293,9.293,0,0,0-7.1238-1.92Q211.4627,7.7237,148.364,15.2329a22.4058,22.4058,0,0,0-14.8717,7.7332Q125.9347,31.6741,118.34,40.35,84.4,79.2581,50.4119,118.1234c-2.0237,2.3062-3.349,4.6064-3.2112,7.6729l1.4506,2.7476a8.93,8.93,0,0,0,4.824,1.8863c2.1809,19.1458,4.431,38.2836,6.598,57.431a3.7,3.7,0,0,1-.8629,2.5926c-5.4939,5.9981-5.1874,13.1532.8349,18.5958a2.2993,2.2993,0,0,1,.77,1.8216c-1.2439,3.8742-2.2073,7.9264-4.0805,11.4913-3.3073,6.2935-9.3353,9.558-15.5109,12.5556-1.6591.8053-2.9514,2.3663-4.412,3.58q.15,1.286.2992,2.572C43.8024,248.8711,52.6018,252.5232,62.514,254.0056Z"/><path class="cls-1" d="M235.9488,76.8722c-10.4385,11.9834-20.9208,23.9288-31.2922,35.97a35.2851,35.2851,0,0,1-5.421,5.1145c-.012.0116-.0232.0244-.0351.0361a3.7089,3.7089,0,0,1-.4471.5289,7.8179,7.8179,0,0,1-1.8544,1.2855c-.3166.1813-.651.3305-.9853.48-.19.1286-.3736.2658-.57.3846a12.4308,12.4308,0,0,1-4.2266,1.749,36.8987,36.8987,0,0,1-8.832,2.0937c-21.391,2.44-42.7551,5.1153-64.13,7.699-.4909.0593-.9769.1606-1.8135.3007l1.2722,2.41c3.545,6.7144,7.442,13.2709,10.54,20.1854,3.4,7.588,9.4851,10.79,17.06,12.0085a82.05,82.05,0,0,0,8.3583.8941Q192.6054,120.6325,258.7142,97.61c1.449-.5057,2.9193-.9564,4.3979-1.3848a13.9834,13.9834,0,0,0-.99-6.669c-4.3448-8.9087-9.1422-17.5966-13.9471-26.6973C243.9941,67.6509,239.9678,72.2584,235.9488,76.8722Z"/></svg>