<svg id="Logo-Exitus-Extended" data-name="Logo-Exitus-Extended" preserveAspectRatio="xMidYMid meet" xmlns="http://www.w3.org/2000/svg" width="326.7205mm" height="148.0201mm" viewBox="0 0 926.1369 419.5846"><defs><style>.cls-1{fill:#2c3ea2;}</style></defs><title>existus - logo</title><path class="cls-1" d="M210.7671,328.3473c41.4094-9.4425,79.1038-26.9292,111.7435-54.12,28.677-23.89,48.5813-53.5259,51.9651-91.8334,2.2345-25.2971-4.7657-47.6649-25.3607-64.0074-14.8581-11.79-32.4983-15.4752-51.1144-14.9282-4.3278,0-8.7218-.4795-12.9685.107-7.2394,1-14.5907,2.0088-21.5405,4.16-69.8415,21.6133-114.57,67.5916-133.3937,138.4176-2.484,9.3462-2.292,9.6111,7.0014,9.0978,22.1605-1.2241,44.0135-4.2769,65.1031-11.6238a9.6456,9.6456,0,0,0,6.0988-5.35,145.23,145.23,0,0,1,21.3595-32.454c8.0407-9.4079,16.6754-18.16,28.202-23.4444,6.1241-2.8078,12.5071-3.89,18.9625-2.159,9.9694,2.6733,12.9674,14.1642,6.8675,25.34-4.2052,7.7044-10.1053,14.0357-16.5487,19.8719-24.0865,21.8168-52.7491,34.4927-84.1318,41.3535a285.4712,285.4712,0,0,1-77.4134,5.7195A379.0016,379.0016,0,0,1,31.7514,261.19c-7.3567-1.9038-14.1681-5.8611-22.1206-5.5961-8.8092.2937-12.0089,5.55-7.7827,13.31,2.68,4.9207,6.6817,8.7071,11.0832,12.0439,28.7666,21.8079,61.46,34.926,96.29,43.1955,9.4891,2.253,9.5414,2.0181,10.64,11.4256.1929,1.6519.47,3.2947.641,4.9486,2.3983,23.1507,11.5358,42.8352,29.6853,57.9194,36.5546,30.3807,91.0455,26.3095,124.74-1.26,7.8461-6.42,13.806-13.9811,16.9449-22.958,3.1985,15.4751-1.62,31.0464-1.62,31.0464s14.6007-15.0338,30.6584-54.1581-74.8386-7.3635-74.8386-7.3635c11.8153-.0588,20.757,2.0478,27.49,5.511-12.7392,6.4325-25.95,11.5355-40.41,12.5234-17.1671,1.1727-27.8228-6.3463-29.1735-24.33C203.4138,329.9213,203.6645,329.9669,210.7671,328.3473Z"/><path class="cls-1" d="M62.514,254.0056a5.5634,5.5634,0,0,0,5.6367-2.2882c4.2706-5.5007,5.9365-12,6.48-18.6708.5962-7.32.3583-14.706.5808-22.06a4.2909,4.2909,0,0,1,1.0458-2.5784c5.9525-6.3926,4.9683-14.7322-2.343-19.6592a3.1177,3.1177,0,0,1-1.3533-1.8344c-2.2835-19.1119-4.498-38.2359-6.7723-57.787,4.29-.5115,8.5831-.9968,12.8653-1.5639.0711-.0094.1308-.0084.1981-.0145l21.0112-2.4448,4.94-.5979c26.0325-3.1518,52.06-6.3436,78.1009-9.4273,6.4828-.7677,11.18-4.21,15.3137-8.9593q41.0508-47.1586,82.2142-94.2188A10.0345,10.0345,0,0,0,283.12,4.752q-.7251-1.3738-1.4506-2.7476a9.293,9.293,0,0,0-7.1238-1.92Q211.4627,7.7237,148.364,15.2329a22.4058,22.4058,0,0,0-14.8717,7.7332Q125.9347,31.6741,118.34,40.35,84.4,79.2581,50.4119,118.1234c-2.0237,2.3062-3.349,4.6064-3.2112,7.6729l1.4506,2.7476a8.93,8.93,0,0,0,4.824,1.8863c2.1809,19.1458,4.431,38.2836,6.598,57.431a3.7,3.7,0,0,1-.8629,2.5926c-5.4939,5.9981-5.1874,13.1532.8349,18.5958a2.2993,2.2993,0,0,1,.77,1.8216c-1.2439,3.8742-2.2073,7.9264-4.0805,11.4913-3.3073,6.2935-9.3353,9.558-15.5109,12.5556-1.6591.8053-2.9514,2.3663-4.412,3.58q.15,1.286.2992,2.572C43.8024,248.8711,52.6018,252.5232,62.514,254.0056Z"/><path class="cls-1" d="M235.9488,76.8722c-10.4385,11.9834-20.9208,23.9288-31.2922,35.97a35.2851,35.2851,0,0,1-5.421,5.1145c-.012.0116-.0232.0244-.0351.0361a3.7089,3.7089,0,0,1-.4471.5289,7.8179,7.8179,0,0,1-1.8544,1.2855c-.3166.1813-.651.3305-.9853.48-.19.1286-.3736.2658-.57.3846a12.4308,12.4308,0,0,1-4.2266,1.749,36.8987,36.8987,0,0,1-8.832,2.0937c-21.391,2.44-42.7551,5.1153-64.13,7.699-.4909.0593-.9769.1606-1.8135.3007l1.2722,2.41c3.545,6.7144,7.442,13.2709,10.54,20.1854,3.4,7.588,9.4851,10.79,17.06,12.0085a82.05,82.05,0,0,0,8.3583.8941Q192.6054,120.6325,258.7142,97.61c1.449-.5057,2.9193-.9564,4.3979-1.3848a13.9834,13.9834,0,0,0-.99-6.669c-4.3448-8.9087-9.1422-17.5966-13.9471-26.6973C243.9941,67.6509,239.9678,72.2584,235.9488,76.8722Z"/><path class="cls-1" d="M512.7577,266.2776q14.3541,4.6984,23.6035.4439a8.7,8.7,0,0,0,5.4219-6.939,121.4555,121.4555,0,0,0,.3154-19.4712q-.6445-9.1743-15.9511-13.8735-14.3526-4.6978-22.9649-.6675-4.4706,1.7945-4.7832,5.3716a133.2342,133.2342,0,0,0-.9531,20.8144Q498.0819,261.1364,512.7577,266.2776Z"/><path class="cls-1" d="M924.86,308.1756q-1.9146-3.9126-8.294-5.7061-6.3837-2.0127-10.3662.1143a10.45,10.45,0,0,0-5.2617,5.708q-2.2339,8.2823-11.002,19.9209a179.8333,179.8333,0,0,1-19.2929,21.7119,69.3542,69.3542,0,0,0-12.4424-15.8887A82.6337,82.6337,0,0,0,844.4833,322.96a49.1364,49.1364,0,0,1-10.3672-8.2793q-4.3066-4.5834-3.9892-9.0634a20.7317,20.7317,0,0,1,.6386-2.2383c.209-.5947.3682-1.1192.4785-1.5664a2.5,2.5,0,0,1,1.1153-1.3428,14.9716,14.9716,0,0,1,1.5947-1.0078q.6357-.3354,2.5518-1.3438c1.2754-.6709,2.4414-1.23,3.5088-1.6787q5.42-2.9062,4.7832-6.9384-.6445-4.25-5.4239-6.4893a29.3239,29.3239,0,0,0-9.8886-2.6855,37.1811,37.1811,0,0,0-8.6123.8974q-29.6618,5.8272-32.211,23.7285c-.068.5-.1077.99-.1546,1.4825a7.3842,7.3842,0,0,0-.8,1.875,139.6991,139.6991,0,0,1-11,26.1875,163.617,163.617,0,0,1-16.1045,24.957q-8.61,10.86-15.3066,14.6611-.0015-6.0425,6.5322-33.0117,6.53-26.9692,6.2149-38.16-.3237-8.058-10.5293-15.4414-10.2114-7.3842-19.7764-8.9492a14.4342,14.4342,0,0,0-8.6123.7852q-3.8277,1.6787-3.8262,5.26a128.0136,128.0136,0,0,1-.6357,17.9043,241.5205,241.5205,0,0,1-13.87,33.6866q-8.4522,16.9-16.4219,26.5224a29.3775,29.3775,0,0,1-6.3779,6.4922q-.958-6.7149,5.0976-32.0059,6.0528-25.2889,5.0987-34.4668a9.3222,9.3222,0,0,0-.9581-4.0283q-3.5155-7.6055-13.8769-14.3213-10.37-6.7133-20.2549-6.2636-7.6553.6723-7.3349,6.4922.21,7.92-2.6351,24.0307a117.9823,117.9823,0,0,1-10.5935,25.5445,171.4575,171.4575,0,0,1-16.1045,24.621q-8.61,10.8589-15.3076,14.8858.3135-4.248,1.4336-11.5264,1.1133-7.27,3.0274-16.7861,1.9131-9.51,3.8252-18.6875t4.4609-21.2627q2.5488-12.0864,4.1436-20.5918,3.8275,0,7.496.1113,3.6636.1128,7.1768.11,7.9688-.0015,12.2793-5.3731,4.3037-5.373,1.4336-10.7436t-12.1221-5.3692q-5.4271.0007-13.0771.002,4.4576-27.5289,4.1416-35.81-.3237-5.592-5.584-10.9658a43.8046,43.8046,0,0,0-12.1231-8.7266,44.8638,44.8638,0,0,0-12.5986-4.25,17.8208,17.8208,0,0,0-8.4531.6734q-3.9916,1.3425-3.9854,4.9238.6372,15.2228-6.0527,53.0435-7.9761-.219-14.0342-.2217-7.97.0015-11.8008,5.3735-3.826,5.3724-.6357,10.7427,3.1918,5.3717,12.1211,5.3691,2.2353,0,4.9443-.0009,2.7056,0,5.9.2226-1.2787,6.0455-3.3467,15.668c-.5933,2.75-1.144,5.2739-1.6576,7.5987a7.7019,7.7019,0,0,0-.41,1.13q-5.1036,18.58-18.6534,39.169-13.5585,20.5971-23.7578,26.413-.0015-4.248,7.0108-31.4453,7.0077-27.1949,5.417-39.7275a9.3228,9.3228,0,0,0-.958-4.0283q-3.5157-7.6041-14.0362-14.32-10.5277-6.7134-20.0957-6.2637-7.6552.6723-7.3359,6.4912a113.3481,113.3481,0,0,1-1.7365,22.6129,9.2331,9.2331,0,0,0-.4891,1.1117q-3.5127,13.2086-12.4356,28.09A163.5867,163.5867,0,0,1,462.38,361.6277q-9.252,10.2993-15.3076,12.5352-21.6973-18.3458-31.2647-32.8946,6.6974-8.0567,14.9883-16.4511T444.51,311.61q5.42-4.812,6.6972-5.2617,7.333-3.8027,8.93-9.8486,1.5909-6.0424-4.7861-11.4131a17.9549,17.9549,0,0,0-11.165-3.9141q-6.3838-.1113-9.5674,2.127-6.063,3.3588-17.541,13.0957a216.4112,216.4112,0,0,0-20.4112,19.5859,125.8879,125.8879,0,0,1-11.8047-19.47q-3.829-7.6039-15.1523-12.3057-11.3277-4.6992-20.5742-4.25a16.4892,16.4892,0,0,0-7.0176,2.2393,5.5462,5.5462,0,0,0-2.8691,4.9248q.3222,6.0424,4.7871,16.4482a188.2586,188.2586,0,0,0,11.1679,21.708q6.6987,11.3028,14.6748,22.2666-19.4545,24.8452-26.1474,48.794a10.6534,10.6534,0,0,0,.7988,7.3857q1.75,3.8028,7.8154,5.8184,6.7,2.0127,10.8448-.1143a10.4388,10.4388,0,0,0,5.4218-5.708q3.504-11.64,22.6416-35.5888,11.483,15.22,24.8819,22.8242,13.3974,7.6039,35.0869,7.1562,11.4829-.2269,22.8047-8.8437a79.8731,79.8731,0,0,0,13.6779-13.3807,50.0212,50.0212,0,0,0,4.9773,7.2235A43.51,43.51,0,0,0,506.08,393.5125a40.0724,40.0724,0,0,0,19.1387,4.5859q11.4815-.0015,22.9638-8.62a81.3467,81.3467,0,0,0,14.7093-14.3961A46.4989,46.4989,0,0,0,575.29,389.4734q10.5279,8.392,25.8379,8.3887,9.2477-.0015,18.6582-5.8213a68.531,68.531,0,0,0,16.7432-14.6621c.0244-.0294.0482-.06.0725-.09a37.6013,37.6013,0,0,0,5.67,6.5788,54.5882,54.5882,0,0,0,15.3115,9.8457,44.2883,44.2883,0,0,0,18.1817,4.1368,26.9128,26.9128,0,0,0,17.2226-5.8213,83.2735,83.2735,0,0,0,14.9893-16.3408,43.9078,43.9078,0,0,0,14.5146,15.5527,39.64,39.64,0,0,0,22.8076,6.5976q11.7964-.0014,23.2832-8.5078a75.4261,75.4261,0,0,0,9.7123-8.6287,11.6736,11.6736,0,0,0,2.7252,4.3739q6.7,6.94,21.3721,10.2929a106.1051,106.1051,0,0,0,29.9834,2.4561h2.5518a51.7922,51.7922,0,0,0,19.7754-4.3682,88.36,88.36,0,0,0,19.7734-11.417,167.2416,167.2416,0,0,0,18.0185-16.0049,167.074,167.074,0,0,0,26.7872-35.7011,79.6685,79.6685,0,0,0,6.5371-14.66A10.5165,10.5165,0,0,0,924.86,308.1756Zm-96.6368,55.4082Q826.9463,374.7782,813.872,375q-4.4708.2269-11.9619-2.9072a71.1366,71.1366,0,0,0-9.7286-3.5791,13.0057,13.0057,0,0,0-4.1669-.15c.1643-.2518.3363-.4917.499-.746a229.2525,229.2525,0,0,0,14.6679-26.5224c.6132-1.3129,1.1971-2.6142,1.7659-3.9093q4.2629,3.1737,8.6,6.1446a54.3148,54.3148,0,0,1,10.6865,9.3985A15.079,15.079,0,0,1,828.2235,363.5838Z"/></svg>